<svg width="75" height="75" viewBox="0 0 75 75" fill="none" xmlns="http://www.w3.org/2000/svg">
<circle cx="37.5" cy="37.5" r="37.5" fill="#FF5300"/>
<path d="M42.5751 27.5C44.0402 27.7858 45.3867 28.5024 46.4422 29.5579C47.4978 30.6134 48.2143 31.9599 48.5001 33.425L42.5751 27.5ZM42.5751 21.5C45.6191 21.8382 48.4575 23.2013 50.6245 25.3655C52.7915 27.5298 54.1582 30.3665 54.5001 33.41L42.5751 21.5ZM53.0001 45.38V49.88C53.0018 50.2978 52.9163 50.7113 52.7489 51.094C52.5816 51.4768 52.3361 51.8204 52.0283 52.1028C51.7204 52.3852 51.357 52.6002 50.9613 52.7341C50.5655 52.8679 50.1462 52.9176 49.7301 52.88C45.1144 52.3785 40.6806 50.8012 36.7851 48.275C33.1609 45.972 30.0881 42.8993 27.7851 39.275C25.2501 35.3618 23.6725 30.9065 23.1801 26.27C23.1427 25.8552 23.192 25.4371 23.3249 25.0424C23.4578 24.6477 23.6715 24.285 23.9523 23.9774C24.2331 23.6698 24.5749 23.4241 24.9558 23.2558C25.3368 23.0875 25.7487 23.0004 26.1651 23H30.6651C31.3931 22.9928 32.0988 23.2506 32.6508 23.7253C33.2027 24.2 33.5633 24.8592 33.6651 25.58C33.8551 27.0201 34.2073 28.4341 34.7151 29.795C34.917 30.3319 34.9606 30.9154 34.841 31.4763C34.7214 32.0373 34.4434 32.5522 34.0401 32.96L32.1351 34.865C34.2705 38.6203 37.3798 41.7297 41.1351 43.865L43.0401 41.96C43.448 41.5567 43.9629 41.2788 44.5238 41.1591C45.0848 41.0395 45.6683 41.0832 46.2051 41.285C47.5661 41.7928 48.98 42.1451 50.4201 42.335C51.1488 42.4378 51.8142 42.8048 52.2899 43.3662C52.7656 43.9277 53.0184 44.6444 53.0001 45.38Z" stroke="white" stroke-width="2" stroke-linecap="round" stroke-linejoin="round"/>
</svg>
